<?xml version="1.0" standalone="no"?>
<!DOCTYPE svg PUBLIC "-//W3C//DTD SVG 20010904//EN"
 "http://www.w3.org/TR/2001/REC-SVG-20010904/DTD/svg10.dtd">
<svg version="1.0" xmlns="http://www.w3.org/2000/svg"
 width="500.000000pt" height="500.000000pt" viewBox="0 0 500.000000 500.000000"
 preserveAspectRatio="xMidYMid meet">
<metadata>
Created by potrace 1.16, written by Peter Selinger 2001-2019
</metadata>
<g transform="translate(0.000000,500.000000) scale(0.100000,-0.100000)"
fill="#000000" stroke="none">
<path d="M1553 3782 c25 -26 77 -136 77 -164 0 -7 11 -34 23 -59 l23 -46 -36
8 c-45 11 -120 11 -120 1 0 -4 22 -24 48 -44 44 -34 128 -119 193 -196 l25
-30 -55 -16 c-31 -8 -86 -20 -123 -27 -74 -12 -91 -29 -30 -29 l37 -1 -40 -21
c-56 -30 -28 -34 51 -8 109 37 180 26 219 -34 9 -13 124 -334 256 -712 132
-379 251 -722 266 -761 l26 -73 103 0 c57 0 104 2 104 5 0 20 466 1480 483
1515 29 57 68 79 151 87 61 5 67 8 64 27 -3 21 -6 21 -288 21 -282 0 -285 0
-288 -21 -3 -20 3 -21 114 -27 116 -6 164 -21 164 -50 0 -14 -403 -1167 -407
-1163 -13 13 -374 1110 -375 1139 0 21 4 43 10 49 14 14 85 27 150 28 50 0 53
2 50 23 l-3 22 -233 3 c-156 1 -237 6 -245 14 -10 8 -6 18 15 40 16 17 28 36
28 44 0 17 14 18 42 3 19 -10 20 -9 15 12 -4 13 -7 34 -7 47 0 38 -37 65 -79
59 -37 -4 -37 -4 -54 43 -9 26 -33 62 -53 81 -19 19 -66 64 -103 100 -70 68
-175 139 -207 139 -15 0 -14 -4 9 -28z"/>
</g>
</svg>
